<svg width="22" height="22" viewBox="0 0 22 22" fill="none" xmlns="http://www.w3.org/2000/svg">
<path d="M7.94413 17.1772C7.94413 17.2609 7.8462 17.3279 7.72271 17.3279C7.5822 17.3404 7.48426 17.2735 7.48426 17.1772C7.48426 17.0935 7.5822 17.0266 7.70568 17.0266C7.83342 17.014 7.94413 17.081 7.94413 17.1772ZM6.61988 16.9889C6.59007 17.0726 6.67523 17.1689 6.80297 17.194C6.91368 17.2358 7.04142 17.194 7.06697 17.1103C7.09252 17.0266 7.01162 16.9303 6.88388 16.8926C6.77317 16.8633 6.64968 16.9052 6.61988 16.9889ZM8.50194 16.9177C8.37846 16.947 8.29329 17.0266 8.30607 17.1228C8.31884 17.2065 8.42955 17.2609 8.5573 17.2316C8.68078 17.2023 8.76594 17.1228 8.75317 17.0391C8.74039 16.9596 8.62542 16.9052 8.50194 16.9177ZM11.3037 0.880005C5.39781 0.880005 0.880005 5.28703 0.880005 11.0919C0.880005 15.7333 3.85213 19.7051 8.09742 21.103C8.64246 21.1992 8.83407 20.8686 8.83407 20.5965C8.83407 20.3371 8.8213 18.9057 8.8213 18.0268C8.8213 18.0268 5.84065 18.6546 5.21471 16.7796C5.21471 16.7796 4.7293 15.5617 4.03097 15.2478C4.03097 15.2478 3.05588 14.5908 4.0991 14.6033C4.0991 14.6033 5.15936 14.687 5.74271 15.6831C6.67523 17.2986 8.23794 16.834 8.84684 16.5578C8.94478 15.8882 9.22155 15.4236 9.52813 15.1474C7.14788 14.8879 4.74633 14.5489 4.74633 10.5227C4.74633 9.3718 5.06994 8.79424 5.75123 8.05764C5.64052 7.78561 5.27859 6.66397 5.86194 5.21588C6.75188 4.94385 8.8 6.34589 8.8 6.34589C9.65162 6.11152 10.5671 5.99015 11.4741 5.99015C12.381 5.99015 13.2965 6.11152 14.1481 6.34589C14.1481 6.34589 16.1963 4.93966 17.0862 5.21588C17.6696 6.66815 17.3076 7.78561 17.1969 8.05764C17.8782 8.79843 18.2955 9.37599 18.2955 10.5227C18.2955 14.5615 15.7875 14.8837 13.4072 15.1474C13.799 15.478 14.1311 16.1058 14.1311 17.0893C14.1311 18.4997 14.1183 20.245 14.1183 20.5882C14.1183 20.8602 14.3142 21.1908 14.855 21.0946C19.113 19.7051 22 15.7333 22 11.0919C22 5.28703 17.2097 0.880005 11.3037 0.880005ZM5.01884 15.3148C4.96349 15.3567 4.97626 15.4529 5.04865 15.5324C5.11678 15.5994 5.21471 15.6287 5.27007 15.5743C5.32542 15.5324 5.31265 15.4362 5.24026 15.3567C5.17213 15.2897 5.0742 15.2604 5.01884 15.3148ZM4.55897 14.9758C4.52917 15.0302 4.57175 15.0972 4.65691 15.139C4.72504 15.1809 4.8102 15.1683 4.84 15.1097C4.86981 15.0553 4.82723 14.9884 4.74207 14.9465C4.65691 14.9214 4.58878 14.9339 4.55897 14.9758ZM5.93859 16.4657C5.87046 16.5201 5.896 16.6457 5.99394 16.7252C6.09188 16.8215 6.21536 16.834 6.27071 16.7671C6.32607 16.7127 6.30052 16.5871 6.21536 16.5076C6.12168 16.4113 5.99394 16.3988 5.93859 16.4657ZM5.45317 15.8505C5.38504 15.8924 5.38504 16.0012 5.45317 16.0974C5.5213 16.1937 5.63626 16.2355 5.69162 16.1937C5.75975 16.1393 5.75975 16.0305 5.69162 15.9342C5.632 15.838 5.5213 15.7961 5.45317 15.8505Z" fill="black"/>
</svg>
