<svg width="16" height="21" viewBox="0 0 16 21" fill="none" xmlns="http://www.w3.org/2000/svg">
<path d="M11.5416 7.00131C12.4847 7.00131 13.3893 6.63248 14.0562 5.97598C14.7231 5.31947 15.0978 4.42906 15.0978 3.50062C15.0978 2.57218 14.7231 1.68177 14.0562 1.02527C13.3893 0.36876 12.4847 -6.10352e-05 11.5416 -6.10352e-05L4.42906 -6.10352e-05C3.48644 -6.10352e-05 2.58242 0.368544 1.91589 1.02466C1.24935 1.68079 0.874895 2.57068 0.874895 3.49857C0.874895 4.42647 1.24935 5.31636 1.91589 5.97248C2.58242 6.6286 3.48644 6.9972 4.42906 6.9972C3.48589 6.9972 2.58134 7.36602 1.91441 8.02253C1.24749 8.67904 0.872812 9.56945 0.872812 10.4979C0.872812 11.4263 1.24749 12.3167 1.91441 12.9732C2.58134 13.6298 3.48589 13.9986 4.42906 13.9986C3.7257 13.9982 3.03802 14.2031 2.45296 14.5874C1.86791 14.9717 1.41177 15.5182 1.14223 16.1577C0.872686 16.7972 0.801841 17.501 0.938656 18.1802C1.07547 18.8593 1.4138 19.4833 1.91086 19.9732C2.40792 20.463 3.04138 20.7968 3.73115 20.9323C4.42091 21.0677 5.13599 20.9988 5.78597 20.7342C6.43595 20.4697 6.99163 20.0213 7.38274 19.4458C7.77384 18.8704 7.98282 18.1937 7.98323 17.5013V7.00131H11.5416ZM11.5416 7.00131C10.8386 7.00131 10.1515 7.2065 9.56697 7.59093C8.98249 7.97537 8.52695 8.52178 8.25794 9.16107C7.98893 9.80036 7.91855 10.5038 8.05569 11.1825C8.19283 11.8612 8.53133 12.4846 9.02839 12.9738C9.52545 13.4631 10.1587 13.7963 10.8482 13.9313C11.5376 14.0663 12.2522 13.9971 12.9017 13.7323C13.5511 13.4674 14.1062 13.019 14.4967 12.4437C14.8873 11.8683 15.0957 11.1919 15.0957 10.4999C15.0956 9.57208 14.7211 8.68225 14.0546 8.02615C13.3881 7.37005 12.4842 7.00141 11.5416 7.00131Z" fill="black"/>
</svg>
