<svg width="207" height="55" viewBox="0 0 207 55" fill="none" xmlns="http://www.w3.org/2000/svg">
<path d="M16.8644 17.3813L47.1126 17.5066L17.9026 47.612L16.8644 17.3813Z" fill="#4A8EED"/>
<path d="M32.3095 32.6388L44.9462 32.8819L32.5526 45.2754L32.3095 32.6388Z" fill="#73CCC5"/>
<path d="M57.5699 25.0571V44.6973C57.5699 45.8064 57.0715 46.2924 55.4265 46.2924C55.1772 46.2924 54.9529 46.28 54.6289 46.2426V51.3271C55.1398 51.3645 55.5262 51.377 56.0246 51.377C61.0718 51.377 64.449 49.8815 64.449 44.8468V25.0571H57.5699ZM61.0095 23.0632C62.8788 23.0632 64.3992 21.655 64.3992 19.9227C64.3992 18.1905 62.8788 16.7823 61.0095 16.7823C59.1402 16.7823 57.6198 18.1905 57.6198 19.9227C57.6198 21.655 59.1402 23.0632 61.0095 23.0632ZM77.1759 44.5478C83.4069 44.5478 87.0957 40.5599 87.0957 34.6778C87.0957 28.7957 83.4069 24.8079 77.1759 24.8079C70.9449 24.8079 67.2561 28.7957 67.2561 34.6778C67.2561 40.5599 70.9449 44.5478 77.1759 44.5478ZM77.2257 39.4632C75.3813 39.4632 74.2847 37.6313 74.2847 34.628C74.2847 31.6246 75.3813 29.7927 77.2257 29.7927C78.9704 29.7927 80.0671 31.6246 80.0671 34.628C80.0671 37.6313 78.9704 39.4632 77.2257 39.4632ZM89.8872 44.1988H96.7662V33.0328C96.7662 31.3629 97.6386 30.341 99.0593 30.341C100.48 30.341 101.402 31.3629 101.402 33.0328V44.1988H107.982V33.0328C107.982 31.3629 108.854 30.341 110.275 30.341C111.696 30.341 112.618 31.3629 112.618 33.0328V44.1988H119.497V31.2881C119.497 27.3626 116.98 24.8079 113.316 24.8079C110.475 24.8079 108.181 26.3531 107.533 28.696H107.334C106.935 26.3531 104.792 24.8079 102.1 24.8079C99.4456 24.8079 97.4143 26.3033 96.6167 28.696H96.4173V25.0571H89.8872V44.1988ZM122.79 44.1988H129.619V41.0584H129.769C130.566 43.0025 132.411 44.4481 135.103 44.4481C139.19 44.4481 142.63 41.2578 142.63 34.628C142.63 27.699 138.941 24.8079 135.152 24.8079C132.311 24.8079 130.517 26.4528 129.769 28.3969H129.669V18.6765H122.79V44.1988ZM129.52 34.628C129.52 31.7866 130.666 30.0918 132.56 30.0918C134.455 30.0918 135.551 31.7866 135.551 34.628C135.551 37.4693 134.455 39.1641 132.56 39.1641C130.666 39.1641 129.52 37.4195 129.52 34.628ZM157.921 35.8243C157.933 37.7185 156.836 38.8651 155.129 38.8651C153.397 38.8651 152.4 37.7185 152.388 35.8243V25.0571H145.508V37.2699C145.521 41.4572 148.163 44.4481 152.188 44.4481C155.042 44.4481 157.235 43.0025 158.07 40.5599H158.27V44.1988H164.8V25.0571H157.921V35.8243ZM173.632 44.4979C176.125 44.4979 178.006 43.6505 179.165 41.507H179.315V44.1988H185.745V31.0887C185.745 27.5495 182.393 24.8079 176.922 24.8079C171.202 24.8079 168.386 27.7987 168.149 31.2881H174.48C174.642 30.1042 175.514 29.5434 176.823 29.5434C178.019 29.5434 178.866 30.0918 178.866 31.0887V31.1386C178.866 32.2477 177.645 32.5966 174.43 32.8334C170.479 33.12 167.401 34.7152 167.401 38.9149C167.401 42.7283 169.968 44.4979 173.632 44.4979ZM175.875 40.1611C174.704 40.1611 173.881 39.5879 173.881 38.5161C173.881 37.5316 174.579 36.7714 176.174 36.5222C177.271 36.3477 178.193 36.1234 178.916 35.8243V37.4195C178.916 39.1641 177.433 40.1611 175.875 40.1611ZM200.447 25.0571H197.157V20.4711H190.278V25.0571H187.836V30.0419H190.278V38.6906C190.229 42.7034 192.709 44.7347 197.457 44.473C199.014 44.3857 200.173 44.0617 200.796 43.8748L199.799 39.0395C199.538 39.1018 198.865 39.2389 198.454 39.2389C197.556 39.2389 197.157 38.8401 197.157 38.0426V30.0419H200.447V25.0571Z" fill="#33344D"/>
</svg>
