<svg width="208" height="56" viewBox="0 0 208 56" fill="none" xmlns="http://www.w3.org/2000/svg">
<path d="M16.9737 17.921L47.4179 18.047L18.0187 48.3476L16.9737 17.921Z" fill="#4A8EED"/>
<path d="M32.5189 33.2773L45.2374 33.522L32.7636 45.9959L32.5189 33.2773Z" fill="#73CCC5"/>
<path d="M57.943 25.4262V45.1937C57.943 46.31 57.4413 46.7991 55.7856 46.7991C55.5348 46.7991 55.309 46.7866 54.9829 46.749V51.8664C55.4972 51.9041 55.886 51.9166 56.3877 51.9166C61.4675 51.9166 64.8667 50.4115 64.8667 45.3442V25.4262H57.943ZM61.4048 23.4193C63.2863 23.4193 64.8165 22.002 64.8165 20.2585C64.8165 18.5151 63.2863 17.0977 61.4048 17.0977C59.5234 17.0977 57.9932 18.5151 57.9932 20.2585C57.9932 22.002 59.5234 23.4193 61.4048 23.4193ZM77.676 45.0431C83.9474 45.0431 87.6601 41.0294 87.6601 35.1092C87.6601 29.189 83.9474 25.1753 77.676 25.1753C71.4046 25.1753 67.6919 29.189 67.6919 35.1092C67.6919 41.0294 71.4046 45.0431 77.676 45.0431ZM77.7262 39.9257C75.8698 39.9257 74.7661 38.0819 74.7661 35.0591C74.7661 32.0362 75.8698 30.1924 77.7262 30.1924C79.4822 30.1924 80.586 32.0362 80.586 35.0591C80.586 38.0819 79.4822 39.9257 77.7262 39.9257ZM90.4697 44.6919H97.3933V33.4536C97.3933 31.7728 98.2713 30.7443 99.7012 30.7443C101.131 30.7443 102.059 31.7728 102.059 33.4536V44.6919H108.682V33.4536C108.682 31.7728 109.56 30.7443 110.99 30.7443C112.42 30.7443 113.348 31.7728 113.348 33.4536V44.6919H120.271V31.6976C120.271 27.7466 117.738 25.1753 114.05 25.1753C111.19 25.1753 108.883 26.7306 108.23 29.0887H108.03C107.628 26.7306 105.471 25.1753 102.762 25.1753C100.09 25.1753 98.0456 26.6804 97.2428 29.0887H97.0421V25.4262H90.4697V44.6919ZM123.586 44.6919H130.459V41.5312H130.61C131.413 43.4878 133.269 44.9428 135.978 44.9428C140.092 44.9428 143.554 41.7318 143.554 35.0591C143.554 28.0852 139.841 25.1753 136.028 25.1753C133.169 25.1753 131.362 26.831 130.61 28.7876H130.51V19.0042H123.586V44.6919ZM130.359 35.0591C130.359 32.1993 131.513 30.4935 133.419 30.4935C135.326 30.4935 136.43 32.1993 136.43 35.0591C136.43 37.9188 135.326 39.6246 133.419 39.6246C131.513 39.6246 130.359 37.8686 130.359 35.0591ZM158.944 36.2632C158.957 38.1697 157.853 39.3236 156.135 39.3236C154.391 39.3236 153.388 38.1697 153.375 36.2632V25.4262H146.451V37.7181C146.464 41.9325 149.123 44.9428 153.174 44.9428C156.047 44.9428 158.254 43.4878 159.095 41.0294H159.295V44.6919H165.868V25.4262H158.944V36.2632ZM174.758 44.993C177.266 44.993 179.16 44.1401 180.327 41.9827H180.477V44.6919H186.949V31.4969C186.949 27.9347 183.575 25.1753 178.069 25.1753C172.312 25.1753 169.477 28.1856 169.239 31.6976H175.61C175.773 30.506 176.651 29.9416 177.968 29.9416C179.173 29.9416 180.026 30.4935 180.026 31.4969V31.5471C180.026 32.6634 178.796 33.0146 175.56 33.2529C171.584 33.5414 168.486 35.1468 168.486 39.3738C168.486 43.2119 171.07 44.993 174.758 44.993ZM177.015 40.6281C175.836 40.6281 175.008 40.0511 175.008 38.9724C175.008 37.9815 175.711 37.2164 177.316 36.9656C178.42 36.79 179.348 36.5642 180.076 36.2632V37.8686C180.076 39.6246 178.583 40.6281 177.015 40.6281ZM201.747 25.4262H198.435V20.8104H191.512V25.4262H189.053V30.4433H191.512V39.148C191.461 43.1868 193.957 45.2313 198.736 44.9679C200.304 44.8801 201.471 44.554 202.098 44.3658L201.094 39.4992C200.831 39.5619 200.154 39.6999 199.74 39.6999C198.837 39.6999 198.435 39.2985 198.435 38.4958V30.4433H201.747V25.4262Z" fill="white"/>
</svg>
