<svg width="355" height="70" viewBox="0 0 355 70" fill="none" xmlns="http://www.w3.org/2000/svg">
<path d="M122.371 21.7266V52.5576H116.352L102.366 35.0636V52.5576H94.7879V21.7266H100.72L114.707 39.134V21.7266H122.371ZM138.593 52.904C136.139 52.904 134.003 52.4421 132.185 51.5184C130.366 50.5946 128.966 49.2667 127.984 47.5346C127.003 45.8025 126.512 43.7673 126.512 41.429C126.512 39.0907 127.003 37.0555 127.984 35.3234C128.966 33.5914 130.366 32.2634 132.185 31.3397C134.003 30.4159 136.139 29.954 138.593 29.954C141.018 29.954 143.126 30.4303 144.915 31.383C146.734 32.3067 148.134 33.6347 149.116 35.3667C150.097 37.0699 150.588 39.0907 150.588 41.429C150.588 43.7673 150.097 45.8025 149.116 47.5346C148.134 49.2378 146.734 50.5657 144.915 51.5184C143.126 52.4421 141.018 52.904 138.593 52.904ZM138.593 47.0583C141.422 47.0583 142.837 45.1818 142.837 41.429C142.837 39.5237 142.476 38.1236 141.754 37.2287C141.061 36.3049 140.008 35.8431 138.593 35.8431C137.15 35.8431 136.067 36.3049 135.346 37.2287C134.624 38.1236 134.263 39.5237 134.263 41.429C134.263 43.3632 134.624 44.7921 135.346 45.7159C136.067 46.6108 137.15 47.0583 138.593 47.0583ZM169.691 52.9473C166.487 52.9473 163.687 52.2978 161.291 50.9987C158.923 49.6708 157.09 47.8088 155.791 45.4128C154.521 43.0168 153.886 40.2454 153.886 37.0988C153.886 33.9811 154.521 31.2386 155.791 28.8714C157.09 26.4754 158.923 24.6278 161.291 23.3288C163.687 22.0009 166.487 21.3369 169.691 21.3369C171.712 21.3369 173.661 21.64 175.537 22.2462C177.442 22.8525 178.972 23.6752 180.127 24.7145L177.659 30.4736C175.147 28.6549 172.549 27.7456 169.864 27.7456C167.382 27.7456 165.476 28.5395 164.149 30.1272C162.821 31.6861 162.157 34.0099 162.157 37.0988C162.157 40.2166 162.821 42.5693 164.149 44.157C165.476 45.7448 167.382 46.5386 169.864 46.5386C172.549 46.5386 175.147 45.6293 177.659 43.8106L180.127 49.5698C178.972 50.609 177.442 51.4318 175.537 52.038C173.661 52.6442 171.712 52.9473 169.691 52.9473ZM194.581 52.904C192.128 52.904 189.991 52.4421 188.173 51.5184C186.354 50.5946 184.954 49.2667 183.972 47.5346C182.991 45.8025 182.5 43.7673 182.5 41.429C182.5 39.0907 182.991 37.0555 183.972 35.3234C184.954 33.5914 186.354 32.2634 188.173 31.3397C189.991 30.4159 192.128 29.954 194.581 29.954C197.006 29.954 199.114 30.4303 200.903 31.383C202.722 32.3067 204.122 33.6347 205.104 35.3667C206.085 37.0699 206.576 39.0907 206.576 41.429C206.576 43.7673 206.085 45.8025 205.104 47.5346C204.122 49.2378 202.722 50.5657 200.903 51.5184C199.114 52.4421 197.006 52.904 194.581 52.904ZM194.581 47.0583C197.41 47.0583 198.825 45.1818 198.825 41.429C198.825 39.5237 198.464 38.1236 197.742 37.2287C197.05 36.3049 195.996 35.8431 194.581 35.8431C193.138 35.8431 192.055 36.3049 191.334 37.2287C190.612 38.1236 190.251 39.5237 190.251 41.429C190.251 43.3632 190.612 44.7921 191.334 45.7159C192.055 46.6108 193.138 47.0583 194.581 47.0583ZM233.43 20.6874V52.5576H225.723V49.5698C225.087 50.609 224.164 51.4318 222.951 52.038C221.739 52.6154 220.411 52.904 218.967 52.904C217.091 52.904 215.417 52.4277 213.944 51.4751C212.472 50.4936 211.317 49.1368 210.48 47.4047C209.672 45.6437 209.268 43.623 209.268 41.3424C209.268 39.0907 209.672 37.0988 210.48 35.3667C211.317 33.6347 212.472 32.3067 213.944 31.383C215.417 30.4303 217.091 29.954 218.967 29.954C220.353 29.954 221.623 30.2427 222.778 30.82C223.962 31.3974 224.9 32.1768 225.593 33.1583V20.6874H233.43ZM221.392 47.0583C222.778 47.0583 223.846 46.5819 224.597 45.6293C225.347 44.6478 225.723 43.2477 225.723 41.429C225.723 39.6681 225.333 38.3113 224.553 37.3586C223.803 36.3771 222.749 35.8864 221.392 35.8864C219.978 35.8864 218.895 36.3627 218.145 37.3153C217.394 38.2391 217.019 39.5815 217.019 41.3424C217.019 43.1611 217.394 44.5756 218.145 45.586C218.924 46.5675 220.007 47.0583 221.392 47.0583ZM258.397 42.3384H244.584C244.728 44.0416 245.219 45.2685 246.056 46.019C246.893 46.7696 248.12 47.1449 249.737 47.1449C250.834 47.1449 251.931 46.9717 253.028 46.6252C254.125 46.25 255.121 45.7448 256.016 45.1097L258.008 50.3059C256.911 51.1142 255.583 51.7493 254.024 52.2112C252.465 52.6731 250.906 52.904 249.347 52.904C246.836 52.904 244.656 52.4421 242.809 51.5184C240.961 50.5946 239.547 49.2811 238.565 47.5779C237.583 45.8458 237.093 43.8106 237.093 41.4723C237.093 39.2495 237.555 37.272 238.478 35.5399C239.431 33.779 240.73 32.4078 242.376 31.4263C244.05 30.4447 245.955 29.954 248.091 29.954C250.17 29.954 251.989 30.4159 253.547 31.3397C255.106 32.2634 256.304 33.5914 257.142 35.3234C257.979 37.0266 258.397 39.0185 258.397 41.2991V42.3384ZM248.308 35.3234C246.374 35.3234 245.161 36.4493 244.671 38.701H251.685C251.397 36.4493 250.271 35.3234 248.308 35.3234ZM283.241 46.1922H269.558L266.83 52.5576H258.689L273.108 21.7266H279.517L293.98 52.5576H285.969L283.241 46.1922ZM280.6 40.0867L276.399 30.3437L272.199 40.0867H280.6ZM295.736 21.7266H310.415C313.937 21.7266 316.665 22.5782 318.6 24.2814C320.534 25.9558 321.501 28.2363 321.501 31.1231C321.501 33.9811 320.519 36.2616 318.556 37.9649C316.593 39.6681 313.88 40.5197 310.415 40.5197H303.877V52.5576H295.736V21.7266ZM309.333 34.4574C312.393 34.4574 313.923 33.3748 313.923 31.2097C313.923 30.1128 313.548 29.29 312.797 28.7415C312.075 28.1642 310.921 27.8755 309.333 27.8755H303.877V34.4574H309.333ZM325.379 21.7266H333.52V52.5576H325.379V21.7266Z" fill="black"/>
<g clip-path="url(#clip0)">
<path fill-rule="evenodd" clip-rule="evenodd" d="M24.2067 38.1898L33.1578 42.7043L23.8176 61.3848L53.2393 39.8244L44.3661 35.2321L53.9398 16.7073L24.2067 38.1898Z" fill="#F9B745"/>
<path fill-rule="evenodd" clip-rule="evenodd" d="M0.0778809 38.8126L16.7346 22.0001L20.6264 25.8919L7.78358 38.8126L20.6264 51.5776L16.8903 55.3915L0.155716 38.8904" fill="black"/>
<path fill-rule="evenodd" clip-rule="evenodd" d="M77.8353 38.8126L61.1786 22.0001L57.2868 25.8919L70.1296 38.8126L57.2868 51.5776L61.0229 55.3915L77.7575 38.8904" fill="black"/>
<path opacity="0.37" fill-rule="evenodd" clip-rule="evenodd" d="M28.9548 37.8007L46.7012 24.88L41.2528 36.4775L48.3358 40.1357L31.1342 52.8229L36.6605 41.7703L28.9548 37.8007Z" fill="#FFFF6B"/>
</g>
<defs>
<clipPath id="clip0">
<rect width="77.8353" height="45.3002" fill="white" transform="translate(0 16.4739)"/>
</clipPath>
</defs>
</svg>
