<svg width="69" height="57" viewBox="0 0 69 57" fill="none" xmlns="http://www.w3.org/2000/svg">
<path d="M6.27273 7.91667V3.1445C6.27847 2.31286 6.60801 1.51689 7.19015 0.928523C7.7723 0.340157 8.56033 0.00663306 9.384 0H65.8887C67.6075 0 69 1.40917 69 3.1445V53.8555C68.9943 54.6871 68.6647 55.4831 68.0826 56.0715C67.5004 56.6598 66.7124 56.9934 65.8887 57H9.384C8.55855 56.9992 7.76719 56.6675 7.18381 56.0779C6.60042 55.4883 6.27273 54.6889 6.27273 53.8555V50.6667H62.7273V13.6167L37.6364 36.4167L6.27273 7.91667ZM0 22.1667H15.6818V28.5H0V22.1667ZM0 38H25.0909V44.3333H0V38Z" fill="white"/>
</svg>
