<svg width="63" height="63" viewBox="0 0 63 63" fill="none" xmlns="http://www.w3.org/2000/svg">
<path d="M0 6.9825C0 3.1255 3.1255 0 6.9825 0H56.0175C59.8745 0 63 3.1255 63 6.9825V56.0175C63 57.8694 62.2643 59.6454 60.9549 60.9549C59.6454 62.2643 57.8694 63 56.0175 63H6.9825C5.13063 63 3.3546 62.2643 2.04513 60.9549C0.735654 59.6454 0 57.8694 0 56.0175V6.9825ZM11.7495 52.5H51.9645C49.7092 49.2569 46.7023 46.608 43.2008 44.7795C39.6993 42.9511 35.8072 41.9974 31.857 42C27.9068 41.9974 24.0147 42.9511 20.5132 44.7795C17.0117 46.608 14.0048 49.2569 11.7495 52.5ZM31.5 35C33.1087 35 34.7016 34.6831 36.1879 34.0675C37.6741 33.4519 39.0245 32.5496 40.1621 31.4121C41.2996 30.2745 42.2019 28.9241 42.8175 27.4379C43.4331 25.9516 43.75 24.3587 43.75 22.75C43.75 21.1413 43.4331 19.5484 42.8175 18.0621C42.2019 16.5759 41.2996 15.2255 40.1621 14.0879C39.0245 12.9504 37.6741 12.0481 36.1879 11.4325C34.7016 10.8169 33.1087 10.5 31.5 10.5C28.2511 10.5 25.1353 11.7906 22.8379 14.0879C20.5406 16.3853 19.25 19.5011 19.25 22.75C19.25 25.9989 20.5406 29.1147 22.8379 31.4121C25.1353 33.7094 28.2511 35 31.5 35Z" fill="white"/>
</svg>
