<svg width="70" height="68" viewBox="0 0 70 68" fill="none" xmlns="http://www.w3.org/2000/svg">
<path d="M23.3333 49.7561H57.4567L63.3333 54.3502V19.9024H66.6667C67.5507 19.9024 68.3986 20.2519 69.0237 20.874C69.6488 21.4961 70 22.3398 70 23.2195V68L55.15 56.3902H26.6667C25.7826 56.3902 24.9348 56.0408 24.3096 55.4187C23.6845 54.7966 23.3333 53.9529 23.3333 53.0732V49.7561ZM14.85 43.122L0 54.7317V3.31707C0 2.43733 0.351189 1.59362 0.976311 0.971548C1.60143 0.349476 2.44928 0 3.33333 0H53.3333C54.2174 0 55.0652 0.349476 55.6904 0.971548C56.3155 1.59362 56.6667 2.43733 56.6667 3.31707V43.122H14.85Z" fill="white"/>
</svg>
